<svg width="20" height="20" viewBox="0 0 20 20" fill="none" xmlns="http://www.w3.org/2000/svg">
<path d="M18.3337 6.29159C18.3337 6.84159 17.8837 7.29158 17.3337 7.29158H2.66699C2.11699 7.29158 1.66699 6.84159 1.66699 6.29159V6.28325C1.66699 4.37492 3.20866 2.83325 5.11699 2.83325H14.8753C16.7837 2.83325 18.3337 4.38325 18.3337 6.29159Z" fill="#F4891E"/>
<path d="M1.66699 9.54175V13.7167C1.66699 15.6251 3.20866 17.1667 5.11699 17.1667H14.8753C16.7837 17.1667 18.3337 15.6167 18.3337 13.7084V9.54175C18.3337 8.99175 17.8837 8.54175 17.3337 8.54175H2.66699C2.11699 8.54175 1.66699 8.99175 1.66699 9.54175ZM6.66699 14.3751H5.00033C4.65866 14.3751 4.37533 14.0917 4.37533 13.7501C4.37533 13.4084 4.65866 13.1251 5.00033 13.1251H6.66699C7.00866 13.1251 7.29199 13.4084 7.29199 13.7501C7.29199 14.0917 7.00866 14.3751 6.66699 14.3751ZM12.0837 14.3751H8.75033C8.40866 14.3751 8.12533 14.0917 8.12533 13.7501C8.12533 13.4084 8.40866 13.1251 8.75033 13.1251H12.0837C12.4253 13.1251 12.7087 13.4084 12.7087 13.7501C12.7087 14.0917 12.4253 14.3751 12.0837 14.3751Z" fill="#F4891E"/>
</svg>
