<svg width="20" height="20" viewBox="0 0 20 20" fill="none" xmlns="http://www.w3.org/2000/svg">
<path d="M9.375 15.2084H7.5C6.58333 15.2084 5.83333 15.9584 5.83333 16.875V17.0834H5C4.65833 17.0834 4.375 17.3667 4.375 17.7084C4.375 18.05 4.65833 18.3334 5 18.3334H15C15.3417 18.3334 15.625 18.05 15.625 17.7084C15.625 17.3667 15.3417 17.0834 15 17.0834H14.1667V16.875C14.1667 15.9584 13.4167 15.2084 12.5 15.2084H10.625V13.3C10.4167 13.325 10.2083 13.3334 10 13.3334C9.79167 13.3334 9.58333 13.325 9.375 13.3V15.2084Z" fill="#F4891E"/>
<path d="M15.4004 9.70008C15.9504 9.49175 16.4337 9.15008 16.8171 8.76675C17.5921 7.90842 18.1004 6.88342 18.1004 5.68341C18.1004 4.48341 17.1587 3.54175 15.9587 3.54175H15.4921C14.9504 2.43341 13.8171 1.66675 12.5004 1.66675H7.50039C6.18372 1.66675 5.05039 2.43341 4.50872 3.54175H4.04206C2.84206 3.54175 1.90039 4.48341 1.90039 5.68341C1.90039 6.88342 2.40872 7.90842 3.18372 8.76675C3.56706 9.15008 4.05039 9.49175 4.60039 9.70008C5.46706 11.8334 7.55039 13.3334 10.0004 13.3334C12.4504 13.3334 14.5337 11.8334 15.4004 9.70008ZM12.3671 7.04175L11.8504 7.67508C11.7671 7.76675 11.7087 7.95008 11.7171 8.07508L11.7671 8.89175C11.8004 9.39175 11.4421 9.65008 10.9754 9.46675L10.2171 9.16675C10.1004 9.12508 9.90039 9.12508 9.78372 9.16675L9.02539 9.46675C8.55872 9.65008 8.20039 9.39175 8.23372 8.89175L8.28372 8.07508C8.29206 7.95008 8.23372 7.76675 8.15039 7.67508L7.63372 7.04175C7.30872 6.65841 7.45039 6.23341 7.93372 6.10841L8.72539 5.90841C8.85039 5.87508 9.00039 5.75842 9.06706 5.65008L9.50872 4.96675C9.78372 4.54175 10.2171 4.54175 10.4921 4.96675L10.9337 5.65008C11.0004 5.75842 11.1504 5.87508 11.2754 5.90841L12.0671 6.10841C12.5504 6.23341 12.6921 6.65841 12.3671 7.04175Z" fill="#F4891E"/>
</svg>
