<svg width="20" height="20" viewBox="0 0 20 20" fill="none" xmlns="http://www.w3.org/2000/svg">
<path d="M15.3912 14.0251L15.7162 16.6584C15.7995 17.3501 15.0579 17.8334 14.4662 17.4751L10.9745 15.4001C10.5912 15.4001 10.2162 15.3751 9.84955 15.3251C10.4662 14.6001 10.8329 13.6834 10.8329 12.6917C10.8329 10.3251 8.78288 8.40844 6.24955 8.40844C5.28288 8.40844 4.39122 8.68341 3.64955 9.16675C3.62455 8.95841 3.61621 8.75007 3.61621 8.53341C3.61621 4.74174 6.90788 1.66675 10.9745 1.66675C15.0412 1.66675 18.3329 4.74174 18.3329 8.53341C18.3329 10.7834 17.1745 12.7751 15.3912 14.0251Z" stroke="#222222" stroke-linecap="round" stroke-linejoin="round"/>
<path d="M10.8337 12.6917C10.8337 13.6834 10.467 14.6001 9.85033 15.3251C9.02533 16.3251 7.71699 16.9667 6.25033 16.9667L4.07533 18.2584C3.70866 18.4834 3.24199 18.1751 3.29199 17.7501L3.50032 16.1084C2.38366 15.3334 1.66699 14.0917 1.66699 12.6917C1.66699 11.2251 2.45033 9.93342 3.65033 9.16676C4.392 8.68342 5.28366 8.40845 6.25033 8.40845C8.78366 8.40845 10.8337 10.3251 10.8337 12.6917Z" stroke="#222222" stroke-linecap="round" stroke-linejoin="round"/>
</svg>
