<svg width="20" height="20" viewBox="0 0 20 20" fill="none" xmlns="http://www.w3.org/2000/svg">
<path d="M15.3913 14.0251L15.7163 16.6584C15.7997 17.3501 15.058 17.8334 14.4663 17.4751L11.583 15.7584C11.383 15.6417 11.333 15.3917 11.4413 15.1917C11.858 14.4251 12.083 13.5584 12.083 12.6917C12.083 9.64175 9.46633 7.15841 6.24967 7.15841C5.59133 7.15841 4.94967 7.25841 4.34967 7.45841C4.04133 7.55841 3.74133 7.27508 3.81633 6.95842C4.57467 3.92508 7.49133 1.66675 10.9747 1.66675C15.0413 1.66675 18.333 4.74175 18.333 8.53341C18.333 10.7834 17.1747 12.7751 15.3913 14.0251Z" fill="#F4891E"/>
<path d="M10.8337 12.6918C10.8337 13.6834 10.467 14.6001 9.85033 15.3251C9.02533 16.3251 7.71699 16.9668 6.25033 16.9668L4.07533 18.2584C3.70866 18.4834 3.24199 18.1751 3.29199 17.7501L3.50033 16.1084C2.38366 15.3334 1.66699 14.0918 1.66699 12.6918C1.66699 11.2251 2.45033 9.93345 3.65033 9.16678C4.39199 8.68345 5.28366 8.40845 6.25033 8.40845C8.78366 8.40845 10.8337 10.3251 10.8337 12.6918Z" fill="#F4891E"/>
</svg>
