<svg width="36" height="35" viewBox="0 0 36 35" fill="none" xmlns="http://www.w3.org/2000/svg">
<g clip-path="url(#clip0_3197_96549)">
<path d="M32.296 20.4563C32.296 20.4563 31.0577 20.4951 29.5849 18.4774C28.4639 16.9513 28.7507 13.8085 28.9462 12.3987C29.4675 12.2823 29.8716 11.8167 29.8716 11.2606C29.8716 10.6139 29.3502 10.0966 28.6985 10.0966C28.0468 10.0966 27.5254 10.6139 27.5254 11.2606C27.5254 11.5839 27.6558 11.8685 27.8643 12.0883C27.1735 13.0325 25.831 14.494 23.941 14.7526C22.5333 14.9466 21.3341 14.6492 20.4999 14.287C20.2002 13.2523 19.9786 12.0754 19.7831 10.8726C19.4702 8.81618 19.2747 7.21243 19.1574 6.19069C19.5615 5.95789 19.8482 5.50522 19.8482 5.00082C19.8482 4.23775 19.2226 3.61694 18.4536 3.61694C17.6845 3.61694 17.0589 4.23775 17.0589 5.00082C17.0589 5.51816 17.3456 5.95789 17.7627 6.20363C17.6585 7.22537 17.463 8.82911 17.1501 10.8597C16.9677 12.0754 16.733 13.2394 16.4332 14.2741C15.5991 14.6233 14.3999 14.9337 12.9922 14.7397C11.1153 14.481 9.75969 13.0066 9.06887 12.0754C9.27742 11.8685 9.40776 11.571 9.40776 11.2477C9.40776 10.601 8.88639 10.0837 8.23467 10.0837C7.58296 10.0837 7.06159 10.601 7.06159 11.2477C7.06159 11.8038 7.45262 12.2694 7.98702 12.3858C8.18254 13.7956 8.46929 16.9384 7.34834 18.4645C5.87547 20.4692 4.63721 20.4433 4.63721 20.4433L8.71694 25.94H28.2032L32.296 20.4563Z" fill="#F4891E"/>
<path d="M35.0071 16.5246L33.6646 19.4735L29.4545 28.7209L7.42655 28.6562L1.95215 16.4212L2.83848 15.9685C2.83848 15.9685 4.32439 20.3012 7.15283 20.4823C9.98127 20.6504 9.90307 16.1237 9.90307 16.1237L10.1507 16.0461L10.4244 15.9556C10.4244 15.9556 11.5845 18.8656 13.6048 18.3224C15.6251 17.7792 16.5897 14.5329 17.1632 10.8598C17.7367 7.19963 17.9192 4.94922 17.9192 4.94922H19.0662C19.0662 4.94922 19.2356 7.1867 19.7831 10.8598C20.3305 14.52 21.282 17.7792 23.3023 18.3353C23.3154 18.3353 23.3154 18.3353 23.3284 18.3353C25.3357 18.8656 26.5088 15.9814 26.5088 15.9814L27.0301 16.1496C27.0301 16.1496 27.0041 17.1972 27.2908 18.2577C27.5385 19.1889 28.0338 20.146 28.9853 20.4305C29.2069 20.4952 29.4675 20.534 29.7543 20.5211C32.5958 20.3659 34.1078 16.0461 34.1078 16.0461L35.0071 16.5246Z" fill="#FEC272"/>
<path d="M14.3478 28.6819L7.42655 28.656L1.95215 16.421L2.83848 15.9683C2.83848 15.9683 4.32439 20.301 7.15283 20.4821C9.98128 20.6502 9.90307 16.1235 9.90307 16.1235L10.1507 16.0459L14.3478 28.6819Z" fill="#FFB96C"/>
<path d="M27.3163 18.2964L19.6 28.6949L15.6245 28.682L23.3669 18.374C25.3742 18.9043 26.5473 16.0201 26.5473 16.0201L27.0686 16.1883C27.0556 16.1883 27.0295 17.223 27.3163 18.2964Z" fill="#FFD39F"/>
<path d="M35.007 16.5247L33.6645 19.4735L26.8085 28.7209L22.833 28.708L29.0113 20.4694C29.2328 20.5341 29.4935 20.5729 29.7803 20.5599C32.6218 20.4047 34.1337 16.085 34.1337 16.085L35.007 16.5247Z" fill="#FFD39F"/>
<path d="M36.1139 15.8261C36.1139 15.9942 36.0878 16.1494 36.0227 16.2917C35.8272 16.8219 35.3188 17.197 34.7192 17.197C33.9502 17.197 33.3246 16.5762 33.3376 15.8131C33.3376 15.6838 33.3637 15.5415 33.3897 15.4251C33.5592 14.8561 34.0936 14.4422 34.7323 14.4422C35.4883 14.4551 36.1139 15.0759 36.1139 15.8261Z" fill="#FFB96C"/>
<path d="M36.1143 15.8261C36.1143 15.9943 36.0882 16.1495 36.0231 16.2917C35.7493 16.6151 35.3322 16.8091 34.876 16.8091C34.081 16.8091 33.4292 16.1883 33.3901 15.4123C33.5596 14.8432 34.094 14.4293 34.7327 14.4293C35.4887 14.4552 36.1143 15.076 36.1143 15.8261Z" fill="#FEC272"/>
<path d="M35.5798 15.2443C35.5798 15.3219 35.5667 15.3865 35.5407 15.4512C35.4494 15.6969 35.2148 15.8651 34.9411 15.8651C34.5891 15.8651 34.3154 15.5805 34.3154 15.2313C34.3154 15.1667 34.3285 15.1149 34.3415 15.0503C34.4197 14.7916 34.6674 14.5976 34.9541 14.5976C35.306 14.6235 35.5928 14.908 35.5798 15.2443Z" fill="#FFD39F"/>
<path d="M3.77651 15.7356C3.77651 15.9037 3.75044 16.0589 3.68527 16.2012C3.48975 16.7314 2.98141 17.1065 2.38184 17.1065C1.61281 17.1065 0.987166 16.4857 1.0002 15.7226C1.0002 15.5933 1.02627 15.451 1.05234 15.3346C1.22178 14.7656 1.75619 14.3517 2.39487 14.3517C3.16389 14.3517 3.77651 14.9725 3.77651 15.7356Z" fill="#FFB96C"/>
<path d="M3.77642 15.7356C3.77642 15.9037 3.75035 16.0589 3.68518 16.2012C3.41146 16.5245 2.99436 16.7185 2.53816 16.7185C1.74307 16.7185 1.09135 16.0977 1.05225 15.3217C1.22169 14.7526 1.7561 14.3387 2.39478 14.3387C3.1638 14.3517 3.77642 14.9725 3.77642 15.7356Z" fill="#FEC272"/>
<path d="M3.25554 15.1534C3.25554 15.231 3.2425 15.2957 3.21643 15.3604C3.12519 15.6061 2.89058 15.7742 2.61686 15.7742C2.26493 15.7742 1.99121 15.4897 1.99121 15.1405C1.99121 15.0758 2.00424 15.0241 2.01728 14.9594C2.09548 14.7008 2.34314 14.5068 2.62989 14.5068C2.98182 14.5197 3.25554 14.8042 3.25554 15.1534Z" fill="#FFD39F"/>
<path d="M28.1637 15.6841C28.1637 15.8522 28.1376 16.0074 28.0725 16.1497C27.877 16.68 27.3686 17.055 26.769 17.055C26 17.055 25.3744 16.4342 25.3874 15.6712C25.3874 15.5418 25.4135 15.3996 25.4395 15.2832C25.609 14.7141 26.1434 14.3002 26.7821 14.3002C27.5511 14.3002 28.1637 14.921 28.1637 15.6841Z" fill="#FFB96C"/>
<path d="M28.1631 15.6839C28.1631 15.8521 28.1371 16.0073 28.0719 16.1495C27.7982 16.4729 27.3811 16.6669 26.9249 16.6669C26.1298 16.6669 25.4781 16.0461 25.439 15.2701C25.6084 14.701 26.1428 14.2871 26.7815 14.2871C27.5505 14.3 28.1631 14.9208 28.1631 15.6839Z" fill="#FEC272"/>
<path d="M27.6423 15.1021C27.6423 15.1797 27.6292 15.2443 27.6032 15.309C27.5119 15.5547 27.2773 15.7229 27.0036 15.7229C26.6516 15.7229 26.3779 15.4383 26.3779 15.0891C26.3779 15.0245 26.391 14.9727 26.404 14.9081C26.4822 14.6494 26.7299 14.4554 27.0166 14.4554C27.3555 14.4683 27.6423 14.7529 27.6423 15.1021Z" fill="#FFD39F"/>
<path d="M11.5841 15.6321C11.5841 15.8002 11.5581 15.9554 11.4929 16.0977C11.2974 16.628 10.789 17.003 10.1895 17.003C9.42043 17.003 8.79478 16.3822 8.80782 15.6192C8.80782 15.4898 8.83389 15.3476 8.85996 15.2312C9.0294 14.6621 9.56381 14.2482 10.2025 14.2482C10.9715 14.2482 11.5972 14.869 11.5841 15.6321Z" fill="#FFB96C"/>
<path d="M11.584 15.6323C11.584 15.8004 11.558 15.9556 11.4928 16.0979C11.2191 16.4212 10.802 16.6152 10.3458 16.6152C9.55068 16.6152 8.89897 15.9944 8.85986 15.2184C9.02931 14.6493 9.56372 14.2355 10.2024 14.2355C10.9714 14.2484 11.5971 14.8692 11.584 15.6323Z" fill="#FEC272"/>
<path d="M11.0632 15.0502C11.0632 15.1278 11.0501 15.1925 11.0241 15.2572C10.9328 15.5029 10.6982 15.671 10.4245 15.671C10.0725 15.671 9.79883 15.3865 9.79883 15.0373C9.79883 14.9726 9.81186 14.9209 9.8249 14.8562C9.9031 14.5976 10.1508 14.4036 10.4375 14.4036C10.7894 14.4165 11.0632 14.701 11.0632 15.0502Z" fill="#FFD39F"/>
<path d="M19.9132 5.00052C19.9132 5.16865 19.8872 5.32385 19.822 5.46612C19.6265 5.99639 19.1181 6.37146 18.5186 6.37146C17.7495 6.37146 17.1239 5.75065 17.1369 4.98758C17.1369 4.85825 17.163 4.71598 17.1891 4.59958C17.3585 4.03051 17.8929 3.61664 18.5316 3.61664C19.2876 3.62957 19.9132 4.23744 19.9132 5.00052Z" fill="#FFB96C"/>
<path d="M19.9131 5.00069C19.9131 5.16883 19.8871 5.32403 19.8219 5.46629C19.5482 5.78963 19.1311 5.98363 18.6749 5.98363C17.8798 5.98363 17.2281 5.36283 17.189 4.58682C17.3584 4.01775 17.8928 3.60388 18.5315 3.60388C19.2875 3.62975 19.9131 4.23762 19.9131 5.00069Z" fill="#FEC272"/>
<path d="M19.3918 4.41889C19.3918 4.49649 19.3787 4.56115 19.3527 4.62582C19.2614 4.87156 19.0268 5.03969 18.7531 5.03969C18.4012 5.03969 18.1274 4.75516 18.1274 4.40595C18.1274 4.34129 18.1405 4.28955 18.1535 4.22489C18.2317 3.96622 18.4794 3.77222 18.7661 3.77222C19.105 3.79808 19.3918 4.08262 19.3918 4.41889Z" fill="#FFD39F"/>
<path d="M30.9924 28.4879C30.9924 28.7336 30.8881 28.9664 30.7317 29.1475C30.5753 29.3156 30.3537 29.432 30.093 29.4579C28.8938 29.5614 26.5607 29.7295 23.6801 29.8071C19.8741 29.9106 17.0326 29.8976 13.1875 29.7812C10.3069 29.6907 7.98683 29.4967 6.77464 29.3932C6.52699 29.3674 6.3054 29.2509 6.13596 29.0828C5.97954 28.9147 5.87527 28.6819 5.8883 28.4232C5.8883 27.9317 6.25327 27.5179 6.74857 27.4661C7.50456 27.3756 8.78192 27.2463 10.6719 27.1428C13.7741 26.9747 23.0936 27.0005 26.2088 27.1945C28.0987 27.3109 29.3761 27.4403 30.1321 27.5437C30.6274 27.5825 30.9924 28.0093 30.9924 28.4879Z" fill="#FFB96C"/>
<path d="M30.8622 28.2163C30.8622 28.3715 30.771 28.5267 30.6146 28.6302C30.4582 28.7337 30.2366 28.8113 29.9889 28.8242C28.8028 28.8889 26.4957 28.9923 23.6412 29.0441C19.8743 29.1087 17.0719 29.0958 13.2529 29.0182C10.3984 28.9535 8.10434 28.8371 6.91822 28.7595C6.67057 28.7466 6.44899 28.669 6.29257 28.5655C6.13616 28.4491 6.04492 28.3069 6.04492 28.1517C6.04492 27.8413 6.40988 27.5826 6.89215 27.5438C7.63511 27.4921 8.91247 27.4145 10.7764 27.3498C13.8525 27.2463 23.0677 27.2722 26.1438 27.4015C28.0077 27.4791 29.272 27.5697 30.028 27.6214C30.4973 27.6343 30.8622 27.9059 30.8622 28.2163Z" fill="#FEC272"/>
<path d="M22.3896 19.9388L22.3766 24.4267L20.7603 26.0951L16.433 26.0822L14.8428 24.4008L14.8558 19.9129L16.459 18.2574L20.7864 18.2704L22.3896 19.9388Z" fill="#FFB26C"/>
<path d="M22.0382 19.7835L22.0251 23.8704L20.5653 25.3707H16.642L15.1821 23.8446L15.1952 19.7576L16.655 18.2573H20.5914L22.0382 19.7835Z" fill="#FF97C9"/>
<path d="M16.655 18.2573L16.642 25.3707L15.1821 23.8446L15.1952 19.7576L16.655 18.2573Z" fill="#EF50AB"/>
<path d="M22.0383 19.7833L22.0253 23.8703L20.5654 25.3706L20.5915 18.2572L22.0383 19.7833Z" fill="#FFC0E1"/>
<path d="M16.6546 18.2572L20.5649 25.3706H16.6416L16.6546 18.2572Z" fill="#F46CB4"/>
<path d="M19.504 24.0019H18.652V21.0979L17.986 21.7759L17.5 21.2659L18.76 19.9999H19.504V24.0019Z" fill="white"/>
<path d="M26.8735 25.4355C27.651 25.4355 28.2812 24.8102 28.2812 24.0387C28.2812 23.2673 27.651 22.6419 26.8735 22.6419C26.0961 22.6419 25.4658 23.2673 25.4658 24.0387C25.4658 24.8102 26.0961 25.4355 26.8735 25.4355Z" fill="#FFB26C"/>
<path d="M28.1246 23.8578C28.1246 24.0001 28.0985 24.1424 28.0464 24.2717C27.8769 24.7373 27.4338 25.0606 26.9124 25.0606C26.2476 25.0606 25.7002 24.5174 25.7002 23.8578C25.7002 23.7414 25.7132 23.625 25.7523 23.5216C25.8957 23.0301 26.3649 22.668 26.9124 22.668C27.5902 22.655 28.1246 23.1982 28.1246 23.8578Z" fill="#EF50AB"/>
<path d="M28.1247 23.8577C28.1247 23.9999 28.0986 24.1422 28.0465 24.2715C27.8119 24.5561 27.4469 24.7242 27.0559 24.7242C26.3651 24.7242 25.8046 24.1939 25.7524 23.5085C25.8958 23.017 26.3651 22.6548 26.9125 22.6548C27.5903 22.6548 28.1247 23.198 28.1247 23.8577Z" fill="#F46CB4"/>
<path d="M27.668 23.3535C27.668 23.4182 27.6549 23.4828 27.6289 23.5346C27.5507 23.7415 27.3551 23.8967 27.1075 23.8967C26.8077 23.8967 26.5601 23.651 26.5601 23.3535C26.5601 23.3018 26.5731 23.25 26.5861 23.1983C26.6513 22.9784 26.8598 22.8103 27.1205 22.8103C27.4203 22.8103 27.668 23.056 27.668 23.3535Z" fill="#FF97C9"/>
<path d="M10.0459 25.3837C10.8233 25.3837 11.4536 24.7583 11.4536 23.9869C11.4536 23.2155 10.8233 22.5901 10.0459 22.5901C9.26843 22.5901 8.63818 23.2155 8.63818 23.9869C8.63818 24.7583 9.26843 25.3837 10.0459 25.3837Z" fill="#FFB26C"/>
<path d="M11.2584 23.8058C11.2584 23.948 11.2323 24.0903 11.1802 24.2196C11.0107 24.6852 10.5675 25.0086 10.0462 25.0086C9.38142 25.0086 8.83398 24.4654 8.83398 23.8058C8.83398 23.6894 8.84702 23.573 8.88612 23.4695C9.0295 22.978 9.49873 22.6159 10.0462 22.6159C10.7109 22.603 11.2584 23.1462 11.2584 23.8058Z" fill="#EF50AB"/>
<path d="M11.258 23.8061C11.258 23.9483 11.2319 24.0906 11.1798 24.2199C10.9452 24.5045 10.5802 24.6726 10.1892 24.6726C9.49835 24.6726 8.93788 24.1423 8.88574 23.4569C9.02912 22.9654 9.49835 22.6033 10.0458 22.6033C10.7105 22.6033 11.258 23.1465 11.258 23.8061Z" fill="#F46CB4"/>
<path d="M10.8013 23.3014C10.8013 23.3661 10.7882 23.4307 10.7622 23.4825C10.684 23.6894 10.4885 23.8446 10.2408 23.8446C9.94101 23.8446 9.69336 23.5989 9.69336 23.3014C9.69336 23.2497 9.70639 23.1979 9.71943 23.1462C9.7846 22.9263 9.99315 22.7582 10.2538 22.7582C10.5536 22.7582 10.8013 23.0039 10.8013 23.3014Z" fill="#FF97C9"/>
</g>
<defs>
<clipPath id="clip0_3197_96549">
<rect width="36" height="34" fill="white" transform="translate(0 0.5)"/>
</clipPath>
</defs>
</svg>
