<svg width="20" height="20" viewBox="0 0 20 20" fill="none" xmlns="http://www.w3.org/2000/svg">
<path d="M6.03366 1.66675H4.45033C2.62533 1.66675 1.66699 2.62508 1.66699 4.44175V6.02508C1.66699 7.84175 2.62533 8.80008 4.44199 8.80008H6.02533C7.84199 8.80008 8.80033 7.84175 8.80033 6.02508V4.44175C8.80866 2.62508 7.85033 1.66675 6.03366 1.66675Z" fill="#F4891E"/>
<path d="M15.5585 1.66675H13.9752C12.1585 1.66675 11.2002 2.62508 11.2002 4.44175V6.02508C11.2002 7.84175 12.1585 8.80008 13.9752 8.80008H15.5585C17.3752 8.80008 18.3335 7.84175 18.3335 6.02508V4.44175C18.3335 2.62508 17.3752 1.66675 15.5585 1.66675Z" fill="#F4891E"/>
<path d="M15.5585 11.1917H13.9752C12.1585 11.1917 11.2002 12.15 11.2002 13.9667V15.55C11.2002 17.3667 12.1585 18.325 13.9752 18.325H15.5585C17.3752 18.325 18.3335 17.3667 18.3335 15.55V13.9667C18.3335 12.15 17.3752 11.1917 15.5585 11.1917Z" fill="#F4891E"/>
<path d="M6.03366 11.1917H4.45033C2.62533 11.1917 1.66699 12.15 1.66699 13.9667V15.55C1.66699 17.375 2.62533 18.3333 4.44199 18.3333H6.02533C7.84199 18.3333 8.80033 17.375 8.80033 15.5583V13.975C8.80866 12.15 7.85033 11.1917 6.03366 11.1917Z" fill="#F4891E"/>
</svg>
