<svg width="20" height="20" viewBox="0 0 20 20" fill="none" xmlns="http://www.w3.org/2000/svg">
<path d="M13.492 1.66675H6.50866C3.47533 1.66675 1.66699 3.47508 1.66699 6.50841V13.4917C1.66699 16.5251 3.47533 18.3334 6.50866 18.3334H13.492C16.5253 18.3334 18.3337 16.5251 18.3337 13.4917V6.50841C18.3337 3.47508 16.5253 1.66675 13.492 1.66675ZM8.30866 12.4167L6.43366 14.2917C6.30866 14.4167 6.15033 14.4751 5.99199 14.4751C5.83366 14.4751 5.66699 14.4167 5.55033 14.2917L4.92533 13.6667C4.67533 13.4251 4.67533 13.0251 4.92533 12.7834C5.16699 12.5417 5.55866 12.5417 5.80866 12.7834L5.99199 12.9667L7.42533 11.5334C7.66699 11.2917 8.05866 11.2917 8.30866 11.5334C8.55033 11.7751 8.55033 12.1751 8.30866 12.4167ZM8.30866 6.58341L6.43366 8.45841C6.30866 8.58341 6.15033 8.64175 5.99199 8.64175C5.83366 8.64175 5.66699 8.58341 5.55033 8.45841L4.92533 7.83341C4.67533 7.59175 4.67533 7.19175 4.92533 6.95008C5.16699 6.70841 5.55866 6.70841 5.80866 6.95008L5.99199 7.13341L7.42533 5.70008C7.66699 5.45841 8.05866 5.45841 8.30866 5.70008C8.55033 5.94175 8.55033 6.34175 8.30866 6.58341ZM14.6337 13.8501H10.2587C9.91699 13.8501 9.63366 13.5667 9.63366 13.2251C9.63366 12.8834 9.91699 12.6001 10.2587 12.6001H14.6337C14.9837 12.6001 15.2587 12.8834 15.2587 13.2251C15.2587 13.5667 14.9837 13.8501 14.6337 13.8501ZM14.6337 8.01675H10.2587C9.91699 8.01675 9.63366 7.73341 9.63366 7.39175C9.63366 7.05008 9.91699 6.76675 10.2587 6.76675H14.6337C14.9837 6.76675 15.2587 7.05008 15.2587 7.39175C15.2587 7.73341 14.9837 8.01675 14.6337 8.01675Z" fill="#F4891E"/>
</svg>
