<svg width="20" height="16" viewBox="0 0 20 16" fill="none" xmlns="http://www.w3.org/2000/svg">
<g clip-path="url(#clip0_1311_122889)">
<path d="M3.63578 15.9205V14.8615C3.63578 14.4555 3.39562 14.1908 2.98398 14.1908C2.7782 14.1908 2.55523 14.2614 2.40086 14.4908C2.28086 14.2967 2.10938 14.1908 1.85211 14.1908C1.68055 14.1908 1.50914 14.2437 1.37188 14.4379V14.2261H1.01172V15.9205H1.37188V14.985C1.37188 14.685 1.52625 14.5438 1.76641 14.5438C2.00641 14.5438 2.12656 14.7026 2.12656 14.985V15.9205H2.48672V14.985C2.48672 14.685 2.65813 14.5438 2.88109 14.5438C3.12125 14.5438 3.24125 14.7026 3.24125 14.985V15.9205H3.63578ZM8.96945 14.2261H8.38641V13.7142H8.02625V14.2261H7.70039V14.5614H8.02617V15.338C8.02617 15.7264 8.18055 15.9558 8.59219 15.9558C8.74656 15.9558 8.91797 15.9029 9.03813 15.8323L8.93516 15.5145C8.83227 15.5851 8.71227 15.6028 8.62648 15.6028C8.455 15.6028 8.38641 15.4969 8.38641 15.3204V14.5614H8.96945V14.2261ZM12.0223 14.1907C11.8165 14.1907 11.6793 14.2967 11.5935 14.4379V14.2261H11.2334V15.9205H11.5935V14.9674C11.5935 14.685 11.7135 14.5261 11.9365 14.5261C12.0051 14.5261 12.0909 14.5438 12.1595 14.5614L12.2623 14.2085C12.1938 14.1908 12.0909 14.1908 12.0223 14.1908M7.40883 14.3674C7.23727 14.2438 6.99719 14.1909 6.73992 14.1909C6.32836 14.1909 6.05398 14.4026 6.05398 14.738C6.05398 15.0205 6.25977 15.1793 6.61992 15.2322L6.79141 15.2499C6.98008 15.2851 7.08297 15.3381 7.08297 15.4264C7.08297 15.5499 6.94578 15.6382 6.70563 15.6382C6.46547 15.6382 6.27687 15.5499 6.1568 15.4617L5.98531 15.7441C6.17398 15.8853 6.43125 15.9559 6.68844 15.9559C7.16867 15.9559 7.44313 15.7265 7.44313 15.4087C7.44313 15.1087 7.22016 14.9498 6.87711 14.8969L6.70563 14.8792C6.55125 14.8615 6.43125 14.8263 6.43125 14.7204C6.43125 14.5968 6.55125 14.5262 6.73992 14.5262C6.94578 14.5262 7.15156 14.6144 7.25445 14.6674L7.40883 14.3674ZM16.9788 14.1909C16.7729 14.1909 16.6357 14.2968 16.5499 14.4379V14.2262H16.1898V15.9206H16.5499V14.9675C16.5499 14.6851 16.67 14.5262 16.8929 14.5262C16.9616 14.5262 17.0473 14.5439 17.1159 14.5615L17.2188 14.2086C17.1502 14.1909 17.0473 14.1909 16.9788 14.1909ZM12.3824 15.0734C12.3824 15.5852 12.7254 15.9559 13.2571 15.9559C13.4972 15.9559 13.6687 15.9029 13.8402 15.7618L13.6687 15.4617C13.5315 15.5676 13.3943 15.6205 13.2399 15.6205C12.9484 15.6205 12.7426 15.4087 12.7426 15.0734C12.7426 14.7557 12.9484 14.5438 13.2399 14.5262C13.3943 14.5262 13.5315 14.5791 13.6687 14.6851L13.8402 14.385C13.6687 14.2438 13.4972 14.1909 13.2571 14.1909C12.7254 14.1909 12.3824 14.5615 12.3824 15.0734ZM15.7096 15.0734V14.2262H15.3495V14.4379C15.2294 14.2792 15.0579 14.1909 14.8349 14.1909C14.3719 14.1909 14.0117 14.5615 14.0117 15.0734C14.0117 15.5852 14.3719 15.9559 14.8349 15.9559C15.075 15.9559 15.2466 15.8677 15.3495 15.7088V15.9206H15.7096V15.0734ZM14.389 15.0734C14.389 14.7733 14.5777 14.5262 14.8863 14.5262C15.1779 14.5262 15.3838 14.7557 15.3838 15.0734C15.3838 15.3734 15.1779 15.6205 14.8863 15.6205C14.5777 15.6028 14.389 15.3734 14.389 15.0734ZM10.0843 14.1909C9.60406 14.1909 9.26102 14.5438 9.26102 15.0734C9.26102 15.6029 9.60398 15.9559 10.1014 15.9559C10.3415 15.9559 10.5816 15.8853 10.7703 15.7265L10.5988 15.4617C10.4616 15.5676 10.2901 15.6382 10.1186 15.6382C9.89563 15.6382 9.67266 15.5323 9.62117 15.2322H10.8389V15.091C10.8561 14.5438 10.5474 14.1909 10.0843 14.1909ZM10.0842 14.5085C10.3071 14.5085 10.4616 14.6498 10.4958 14.9146H9.63828C9.67258 14.6851 9.82695 14.5085 10.0842 14.5085ZM19.0195 15.0734V13.5555H18.6594V14.4379C18.5393 14.2792 18.3678 14.1909 18.1448 14.1909C17.6818 14.1909 17.3216 14.5615 17.3216 15.0734C17.3216 15.5852 17.6818 15.9559 18.1448 15.9559C18.385 15.9559 18.5565 15.8677 18.6594 15.7088V15.9206H19.0195V15.0734ZM17.699 15.0734C17.699 14.7733 17.8876 14.5262 18.1963 14.5262C18.4879 14.5262 18.6937 14.7557 18.6937 15.0734C18.6937 15.3734 18.4879 15.6205 18.1963 15.6205C17.8876 15.6028 17.699 15.3734 17.699 15.0734ZM5.65938 15.0734V14.2262H5.29922V14.4379C5.17914 14.2792 5.00766 14.1909 4.78469 14.1909C4.32164 14.1909 3.96148 14.5615 3.96148 15.0734C3.96148 15.5852 4.32164 15.9559 4.78469 15.9559C5.02484 15.9559 5.19633 15.8677 5.29922 15.7088V15.9206H5.65938V15.0734ZM4.32164 15.0734C4.32164 14.7733 4.51031 14.5262 4.81898 14.5262C5.11055 14.5262 5.31641 14.7557 5.31641 15.0734C5.31641 15.3734 5.11055 15.6205 4.81898 15.6205C4.51031 15.6028 4.32164 15.3734 4.32164 15.0734Z" fill="black"/>
<path d="M7.28906 1.35904H12.6914V11.3491H7.28906V1.35904Z" fill="#FF5F00"/>
<path d="M7.63195 6.35409C7.63195 4.32434 8.55805 2.52398 9.98148 1.35904C8.93539 0.511839 7.61484 0 6.17422 0C2.76117 0 0 2.84165 0 6.35409C0 9.86653 2.76117 12.7082 6.17414 12.7082C7.61477 12.7082 8.93531 12.1963 9.98148 11.3491C8.55805 10.2018 7.63195 8.38384 7.63195 6.35409Z" fill="#EB001B"/>
<path d="M19.9805 6.35409C19.9805 9.86645 17.2193 12.7082 13.8064 12.7082C12.3657 12.7082 11.0452 12.1963 9.99902 11.3491C11.4396 10.1842 12.3486 8.38384 12.3486 6.35409C12.3486 4.32434 11.4225 2.52398 9.99902 1.35904C11.0451 0.511839 12.3657 0 13.8064 0C17.2193 0 19.9805 2.85934 19.9805 6.35409Z" fill="#F79E1B"/>
</g>
<defs>
<clipPath id="clip0_1311_122889">
<rect width="20" height="16" fill="white"/>
</clipPath>
</defs>
</svg>
